<?xml version="1.0" standalone="no"?>
<!DOCTYPE svg PUBLIC "-//W3C//DTD SVG 20010904//EN"
 "http://www.w3.org/TR/2001/REC-SVG-20010904/DTD/svg10.dtd">
<svg version="1.0" xmlns="http://www.w3.org/2000/svg"
 width="718.000000pt" height="752.000000pt" viewBox="0 0 718.000000 752.000000"
 preserveAspectRatio="xMidYMid meet">

<g transform="translate(0.000000,752.000000) scale(0.100000,-0.100000)"
fill="#334155" stroke="none">

<path d="M5586 7495 c-51 -18 -102 -69 -120 -119 -11 -29 -24 -204 -46 -596
-17 -305 -33 -556 -35 -558 -2 -2 -10 11 -18 29 -183 430 -415 960 -430 980
-33 46 -95 74 -162 74 -70 0 -112 -21 -158 -78 -26 -31 -32 -49 -35 -101 -4
-62 -2 -67 141 -403 222 -519 397 -976 397 -1036 0 -37 -36 -11 -97 70 -69 93
-80 120 -89 246 -5 63 -11 87 -20 87 -8 0 -58 -44 -113 -97 -127 -126 -156
-182 -156 -298 1 -95 6 -107 117 -254 208 -275 343 -570 415 -907 26 -121 27
-144 27 -384 1 -271 -6 -328 -60 -542 -135 -538 -489 -1047 -855 -1232 -288
-146 -473 -34 -510 308 -25 224 40 591 177 1007 29 91 54 180 54 199 0 56 -22
110 -59 142 -34 30 -36 31 -115 24 -45 -3 -107 -9 -138 -12 -81 -9 -139 2
-191 37 -87 57 -156 198 -197 398 -23 112 -25 176 -9 253 28 133 93 216 289
368 281 218 373 367 400 648 10 102 4 203 -26 487 -18 168 -31 205 -80 236
-54 33 -105 36 -153 8 -87 -49 -95 -86 -71 -316 25 -231 25 -326 1 -428 -71
-295 -299 -528 -586 -601 -102 -26 -285 -24 -390 5 -218 59 -394 198 -494 390
-62 120 -80 195 -106 438 -13 122 -28 230 -34 240 -12 23 -60 67 -88 82 -65
33 -155 -1 -192 -73 l-24 -47 17 -182 c44 -443 102 -624 253 -787 77 -83 193
-158 367 -235 234 -104 315 -164 371 -274 42 -84 56 -155 55 -291 0 -206 -43
-346 -128 -421 -47 -41 -97 -60 -213 -79 -165 -28 -190 -105 -128 -397 156
-737 468 -1223 897 -1395 156 -62 210 -72 417 -72 214 -1 275 9 480 75 244 80
581 271 835 474 756 605 1371 1543 1610 2455 58 221 100 533 100 740 0 146
-19 319 -40 367 -47 107 -130 173 -215 173 -76 0 -149 -25 -179 -61 l-26 -30
-10 26 c-30 80 -125 145 -209 145 -52 0 -111 -24 -158 -64 -18 -15 -33 -24
-33 -19 0 4 12 237 26 517 20 409 23 518 14 552 -13 46 -59 97 -103 113 -39
15 -114 13 -161 -4z"/>
<path d="M2675 7395 c-200 -44 -370 -174 -456 -350 -32 -67 -72 -184 -65 -192
1 -2 76 6 167 17 225 27 244 27 279 -9 38 -37 45 -70 27 -114 -26 -60 -46 -67
-264 -88 -109 -10 -200 -18 -203 -19 -6 0 5 -169 12 -175 2 -2 82 5 178 15
260 29 282 27 316 -35 15 -29 16 -39 5 -74 -19 -65 -38 -72 -268 -97 -113 -12
-207 -24 -209 -26 -4 -4 15 -170 19 -175 1 -1 90 8 197 19 107 12 207 19 221
15 63 -16 96 -75 75 -136 -21 -63 -42 -71 -266 -91 -111 -11 -205 -21 -207
-23 -2 -3 3 -35 11 -73 47 -229 214 -413 441 -489 314 -105 654 39 804 341 37
76 58 158 67 261 6 73 5 83 -10 89 -10 4 -108 -3 -218 -15 -195 -21 -201 -21
-232 -3 -20 11 -36 32 -45 58 -12 35 -12 44 3 74 9 20 25 41 36 48 11 6 115
22 231 34 l211 22 -7 71 c-9 98 -12 105 -43 105 -15 0 -105 -9 -201 -20 -191
-21 -221 -17 -255 31 -33 48 -11 129 43 158 9 5 108 18 220 27 l202 18 -6 51
c-15 126 -15 125 -43 125 -15 0 -105 -9 -201 -20 -150 -16 -179 -17 -207 -5
-82 34 -90 151 -13 191 15 7 108 21 213 31 102 9 186 21 186 25 0 5 -12 32
-26 61 -130 255 -440 404 -719 342z m159 -154 c40 -40 47 -105 15 -145 -71
-91 -199 -52 -199 61 0 107 110 158 184 84z"/>
<path d="M1340 1343 c-173 -60 -277 -244 -228 -405 37 -123 188 -192 305 -139
45 21 63 45 63 85 0 36 -35 56 -97 56 -44 0 -58 5 -85 28 -27 25 -31 36 -31
75 0 109 132 207 202 150 31 -25 40 -78 42 -233 0 -74 4 -204 7 -288 7 -152 8
-154 35 -178 16 -13 41 -24 56 -24 62 0 86 30 295 386 l201 342 67 4 c81 4
118 31 118 84 0 53 -26 64 -148 64 -57 0 -112 -4 -122 -10 -10 -5 -92 -136
-182 -290 l-163 -280 -6 207 c-4 119 -12 225 -19 248 -33 109 -179 164 -310
118z"/>
<path d="M4875 1346 c-22 -7 -56 -21 -75 -31 -52 -27 -147 -122 -186 -187
l-35 -58 -69 0 c-59 0 -73 -4 -99 -26 -23 -19 -31 -34 -31 -59 0 -52 21 -65
101 -65 l69 0 0 -29 c0 -16 7 -48 15 -72 37 -105 146 -160 253 -130 23 7 32 6
32 -2 -1 -29 -20 -34 -135 -40 -177 -9 -258 -35 -344 -113 -85 -76 -119 -197
-87 -308 32 -110 139 -186 261 -186 158 0 264 107 366 372 l34 88 78 0 c72 0
138 16 149 36 20 34 17 66 -6 89 -22 22 -34 25 -91 25 -36 0 -65 2 -65 4 0 2
14 36 30 76 38 91 38 122 4 149 -37 29 -59 26 -140 -14 -41 -21 -84 -35 -105
-35 -45 0 -89 32 -89 66 0 24 1 24 105 24 164 0 248 24 312 92 41 42 53 76 53
144 0 69 -17 111 -63 151 -59 52 -154 67 -242 39z m135 -156 c27 -27 25 -56
-4 -85 -28 -28 -82 -38 -181 -33 l-70 3 50 50 c82 82 162 108 205 65z m-240
-699 c0 -21 -81 -196 -106 -228 -61 -80 -134 -95 -190 -39 -29 29 -34 41 -34
83 0 88 67 155 179 179 69 15 151 17 151 5z"/>
<path d="M2825 1145 c-52 -51 -16 -145 55 -145 40 0 90 47 90 85 0 16 -12 38
-29 56 -38 37 -82 39 -116 4z"/>
<path d="M2286 960 c-104 -40 -186 -158 -186 -266 0 -85 52 -165 119 -184 48
-13 146 -13 196 1 89 25 175 157 175 267 -1 154 -149 243 -304 182z m134 -130
c41 -41 15 -160 -40 -190 -10 -6 -35 -10 -54 -10 -47 0 -76 29 -76 75 0 100
113 182 170 125z"/>
<path d="M3170 971 c-150 -46 -243 -233 -181 -366 40 -87 82 -105 240 -105
133 0 178 11 192 47 13 34 12 40 -11 63 -17 17 -33 20 -125 20 -119 0 -159 13
-169 55 -17 69 49 169 108 163 28 -3 32 -7 37 -45 9 -68 37 -87 92 -62 49 22
63 108 27 167 -35 57 -133 86 -210 63z"/>
<path d="M3634 964 c-102 -37 -175 -141 -181 -258 -4 -60 -1 -78 19 -115 37
-71 75 -85 237 -89 73 -2 144 -1 157 2 59 15 84 81 42 110 -17 12 -50 16 -146
16 -124 0 -162 8 -162 35 0 12 17 15 83 15 103 0 145 12 181 49 58 61 42 177
-31 222 -45 28 -142 34 -199 13z m120 -137 c8 -14 8 -20 -4 -27 -16 -10 -120
-14 -120 -5 0 3 12 17 27 31 31 29 79 30 97 1z"/>
<path d="M5405 956 c-177 -82 -237 -360 -95 -438 45 -25 177 -22 206 4 18 15
21 15 43 -3 18 -14 39 -19 91 -19 83 0 124 14 139 46 15 34 14 41 -9 64 -15
15 -33 20 -74 20 l-54 0 54 135 c30 74 54 142 54 150 0 8 -10 25 -21 36 -25
25 -79 21 -110 -7 -17 -15 -19 -15 -35 1 -42 41 -115 46 -189 11z m136 -116
c25 -14 24 -38 -7 -113 -30 -73 -54 -97 -98 -97 -43 0 -56 16 -56 68 0 95 94
178 161 142z"/>
<path d="M6495 956 c-177 -82 -237 -360 -95 -438 45 -25 177 -22 206 4 18 15
21 15 43 -3 18 -14 39 -19 91 -19 83 0 124 14 139 46 15 34 14 41 -9 64 -15
15 -33 20 -74 20 l-54 0 54 135 c30 74 54 142 54 150 0 8 -10 25 -21 36 -25
25 -79 21 -110 -7 -17 -15 -19 -15 -35 1 -42 41 -115 46 -189 11z m136 -116
c25 -14 24 -38 -7 -113 -30 -73 -54 -97 -98 -97 -43 0 -56 16 -56 68 0 95 94
178 161 142z"/>
<path d="M2786 948 c-30 -27 -156 -325 -156 -369 0 -57 46 -79 166 -79 97 0
138 15 148 55 13 52 -13 72 -100 77 l-42 3 55 139 55 139 -20 26 c-26 35 -71
39 -106 9z"/>
<path d="M5955 958 c-30 -17 -44 -40 -45 -70 0 -42 24 -58 88 -58 l57 -1 -117
-112 c-100 -95 -118 -117 -118 -143 0 -17 6 -39 14 -50 13 -18 28 -19 214 -19
183 0 202 2 221 19 13 12 21 31 21 53 0 44 -24 53 -140 53 l-89 0 106 103
c116 112 126 127 125 171 -2 57 -27 66 -181 66 -83 0 -144 -5 -156 -12z"/>
</g>
</svg>
